<svg width="60" height="60" viewBox="0 0 60 60" fill="none" xmlns="http://www.w3.org/2000/svg">
<rect width="60" height="60" rx="20" fill="#F1F4F3"/>
<path fill-rule="evenodd" clip-rule="evenodd" d="M33.025 22.5127C33.795 21.5832 34.312 20.2879 34.1708 19C33.0635 19.0449 31.7233 19.7379 30.9304 20.6674C30.2182 21.4906 29.5948 22.8078 29.7635 24.0701C30.9973 24.1663 32.2587 23.4431 33.0268 22.5127H33.025ZM35.7952 30.6875C35.8263 34.0168 38.7157 35.1251 38.7468 35.1397C38.7239 35.2177 38.2867 36.7183 37.2252 38.2683C36.3085 39.6085 35.357 40.9441 33.8573 40.9716C32.3843 40.9982 31.9113 40.098 30.2264 40.098C28.5434 40.098 28.0173 40.9441 26.6221 40.9982C25.1756 41.0532 24.0738 39.5489 23.1479 38.2142C21.2596 35.4826 19.8158 30.4959 21.7546 27.1299C22.7162 25.4579 24.4377 24.3992 26.3058 24.3726C27.7267 24.3451 29.0678 25.3287 29.9358 25.3287C30.8048 25.3287 32.4347 24.1462 34.1479 24.3194C34.8657 24.3497 36.8787 24.6091 38.1721 26.502C38.0676 26.5662 35.7695 27.9045 35.7943 30.6875" fill="black"/>
</svg>
