<svg width="6" height="6" viewBox="0 0 6 6" fill="none" xmlns="http://www.w3.org/2000/svg">
<path d="M3 0.999756C2.60444 0.999756 2.21776 1.11705 1.88886 1.33682C1.55996 1.55658 1.30362 1.86894 1.15224 2.23439C1.00087 2.59984 0.96126 3.00197 1.03843 3.38994C1.1156 3.7779 1.30608 4.13426 1.58579 4.41397C1.86549 4.69367 2.22186 4.88416 2.60982 4.96133C2.99778 5.0385 3.39992 4.99889 3.76537 4.84752C4.13082 4.69614 4.44318 4.4398 4.66294 4.1109C4.8827 3.782 5 3.39532 5 2.99976C5 2.46932 4.78929 1.96062 4.41421 1.58554C4.03914 1.21047 3.53043 0.999756 3 0.999756ZM2.66667 1.85809C2.66667 1.79216 2.68622 1.72772 2.72284 1.6729C2.75947 1.61808 2.81153 1.57536 2.87244 1.55013C2.93335 1.5249 3.00037 1.5183 3.06503 1.53116C3.12969 1.54402 3.18909 1.57577 3.2357 1.62239C3.28232 1.669 3.31407 1.7284 3.32693 1.79306C3.33979 1.85772 3.33319 1.92474 3.30796 1.98565C3.28273 2.04656 3.24001 2.09862 3.18519 2.13525C3.13037 2.17187 3.06593 2.19142 3 2.19142C2.95485 2.19368 2.9097 2.18673 2.86732 2.171C2.82493 2.15526 2.78619 2.13107 2.75345 2.09989C2.72071 2.0687 2.69465 2.03119 2.67687 1.98962C2.65909 1.94805 2.64994 1.9033 2.65 1.85809H2.66667ZM3.83333 3.99976C3.83333 4.04396 3.81578 4.08635 3.78452 4.11761C3.75326 4.14886 3.71087 4.16642 3.66667 4.16642H2.5C2.4558 4.16642 2.41341 4.14886 2.38215 4.11761C2.35089 4.08635 2.33333 4.04396 2.33333 3.99976C2.33333 3.95555 2.35089 3.91316 2.38215 3.8819C2.41341 3.85065 2.4558 3.83309 2.5 3.83309H2.83333V2.83309H2.66667C2.62247 2.83309 2.58007 2.81553 2.54882 2.78427C2.51756 2.75302 2.5 2.71063 2.5 2.66642C2.5 2.62222 2.51756 2.57983 2.54882 2.54857C2.58007 2.51732 2.62247 2.49976 2.66667 2.49976H3.33333V3.83309H3.66667C3.71087 3.83309 3.75326 3.85065 3.78452 3.8819C3.81578 3.91316 3.83333 3.95555 3.83333 3.99976Z" fill="#194B38"/>
</svg>
