<svg width="60" height="60" viewBox="0 0 60 60" fill="none" xmlns="http://www.w3.org/2000/svg">
<rect width="60" height="60" rx="20" fill="#F1F4F3"/>
<g clip-path="url(#clip0_194_3504)">
<path d="M23.8272 27.9513C24.2561 26.6537 25.0838 25.5247 26.1923 24.7253C27.3008 23.926 28.6334 23.4971 30 23.4999C31.5492 23.4999 32.9498 24.0499 34.0498 24.9501L37.2508 21.75C35.3002 20.0496 32.8004 19 30 19C25.6642 19 21.9315 21.4732 20.1367 25.0958L23.8272 27.9513Z" fill="#EA4335"/>
<path d="M33.7033 35.5119C32.7042 36.1563 31.4355 36.5001 30 36.5001C28.6388 36.5029 27.3112 36.0774 26.2052 35.284C25.0992 34.4905 24.2708 33.3693 23.8373 32.079L20.1339 34.8904C21.0426 36.7295 22.4488 38.2769 24.1928 39.3569C25.9368 40.4369 27.9487 41.0061 30 41C32.6886 41 35.2571 40.0439 37.1812 38.25L33.7043 35.5119H33.7033Z" fill="#34A853"/>
<path d="M37.1812 38.25C39.1932 36.3727 40.4995 33.5787 40.4995 30C40.4995 29.3492 40.3996 28.6498 40.2502 27.9999H30V32.2505H35.8997C35.6091 33.6795 34.8272 34.786 33.7043 35.512L37.1812 38.25Z" fill="#4A90E2"/>
<path d="M23.8372 32.079C23.613 31.4088 23.4991 30.7067 23.4999 30C23.4999 29.2832 23.6145 28.5947 23.8272 27.9512L20.1367 25.0958C19.3817 26.62 18.9925 28.2991 19 30C19 31.76 19.4079 33.4192 20.1339 34.8904L23.8372 32.079Z" fill="#FBBC05"/>
</g>
<defs>
<clipPath id="clip0_194_3504">
<rect width="22" height="22" fill="white" transform="translate(19 19)"/>
</clipPath>
</defs>
</svg>
