<svg width="127" height="120" viewBox="0 0 127 120" fill="none" xmlns="http://www.w3.org/2000/svg">
<circle cx="39.5" cy="35.5" r="19.5" fill="#A1E2CB"/>
<path fill-rule="evenodd" clip-rule="evenodd" d="M49 52H75C75.862 52 76.6886 52.3424 77.2981 52.9519C77.9076 53.5614 78.25 54.388 78.25 55.25C78.25 56.112 77.9076 56.9386 77.2981 57.5481C76.6886 58.1576 75.862 58.5 75 58.5H45.75C44.8881 58.5 44.0614 58.1576 43.4519 57.5481C42.8424 56.9386 42.5 56.112 42.5 55.25V13H39.25C38.3881 13 37.5614 12.6576 36.9519 12.0481C36.3424 11.4386 36 10.612 36 9.75C36 8.88805 36.3424 8.0614 36.9519 7.4519C37.5614 6.84241 38.3881 6.5 39.25 6.5H45.75C46.612 6.5 47.4386 6.84241 48.0481 7.4519C48.6576 8.0614 49 8.88805 49 9.75V39H77.5188L81.5 22.75V16.2533C85.2213 16.2533 88 19.1587 88 22.75C88 23.2245 87.9448 23.6957 87.8375 24.1605L84.0968 40.4105C83.4143 43.3843 80.6778 45.5 77.5188 45.5H49.2373L49 45.4967V52ZM47.375 71.5C46.0821 71.5 44.8421 70.9864 43.9279 70.0721C43.0136 69.1579 42.5 67.9179 42.5 66.625C42.5 65.3321 43.0136 64.0921 43.9279 63.1779C44.8421 62.2636 46.0821 61.75 47.375 61.75C48.668 61.75 49.9079 62.2636 50.8222 63.1779C51.7364 64.0921 52.25 65.3321 52.25 66.625C52.25 67.9179 51.7364 69.1579 50.8222 70.0721C49.9079 70.9864 48.668 71.5 47.375 71.5ZM76.625 71.5C75.3321 71.5 74.0921 70.9864 73.1779 70.0721C72.2636 69.1579 71.75 67.9179 71.75 66.625C71.75 65.3321 72.2636 64.0921 73.1779 63.1779C74.0921 62.2636 75.3321 61.75 76.625 61.75C77.918 61.75 79.1579 62.2636 80.0722 63.1779C80.9864 64.0921 81.5 65.3321 81.5 66.625C81.5 67.9179 80.9864 69.1579 80.0722 70.0721C79.1579 70.9864 77.918 71.5 76.625 71.5ZM68.5 16.25H71.75C72.612 16.25 73.4386 16.5924 74.0481 17.2019C74.6576 17.8114 75 18.638 75 19.5C75 20.362 74.6576 21.1886 74.0481 21.7981C73.4386 22.4076 72.612 22.75 71.75 22.75H68.5V26C68.5 26.862 68.1576 27.6886 67.5481 28.2981C66.9386 28.9076 66.112 29.25 65.25 29.25C64.3881 29.25 63.5614 28.9076 62.9519 28.2981C62.3424 27.6886 62 26.862 62 26V22.75H58.75C57.8881 22.75 57.0614 22.4076 56.4519 21.7981C55.8424 21.1886 55.5 20.362 55.5 19.5C55.5 18.638 55.8424 17.8114 56.4519 17.2019C57.0614 16.5924 57.8881 16.25 58.75 16.25H62V13C62 12.138 62.3424 11.3114 62.9519 10.7019C63.5614 10.0924 64.3881 9.75 65.25 9.75C66.112 9.75 66.9386 10.0924 67.5481 10.7019C68.1576 11.3114 68.5 12.138 68.5 13V16.25Z" fill="#194B38"/>
<path d="M8.18641 113.14C7.14107 113.14 6.17041 112.963 5.27441 112.608C4.39707 112.235 3.62241 111.703 2.95041 111.012C2.29707 110.321 1.78374 109.481 1.41041 108.492C1.03707 107.484 0.850406 106.355 0.850406 105.104C0.850406 103.405 1.18641 101.819 1.85841 100.344C2.53041 98.8693 3.44507 97.5813 4.60241 96.48C5.75974 95.3787 7.05707 94.52 8.49441 93.904C9.95041 93.288 11.4624 92.98 13.0304 92.98C14.7291 92.98 16.1944 93.372 17.4264 94.156C18.6584 94.9213 19.4704 95.976 19.8624 97.32L15.1584 100.428C14.9717 99.644 14.5611 99.0187 13.9264 98.552C13.3104 98.0667 12.6011 97.824 11.7984 97.824C11.1077 97.824 10.4357 97.992 9.78241 98.328C9.14774 98.664 8.57841 99.14 8.07441 99.756C7.58907 100.353 7.19707 101.053 6.89841 101.856C6.61841 102.64 6.47841 103.489 6.47841 104.404C6.47841 105.169 6.59974 105.851 6.84241 106.448C7.10374 107.027 7.47707 107.484 7.96241 107.82C8.44774 108.137 9.02641 108.296 9.69841 108.296C10.5197 108.296 11.3411 108.081 12.1624 107.652C13.0024 107.204 13.8051 106.579 14.5704 105.776L13.4224 111.096C12.5637 111.787 11.7051 112.3 10.8464 112.636C10.0064 112.972 9.11974 113.14 8.18641 113.14ZM14.1784 106.336H10.7624L11.5744 102.416H19.5264L17.2584 113H12.7784L14.1784 106.336ZM19.8887 113L24.1167 93.12H32.8527C33.9353 93.12 34.85 93.4 35.5967 93.96C36.362 94.5013 36.9407 95.2107 37.3327 96.088C37.7433 96.9653 37.9487 97.8893 37.9487 98.86C37.9487 99.5133 37.8553 100.167 37.6687 100.82C37.482 101.455 37.2113 102.071 36.8567 102.668C36.5207 103.265 36.11 103.825 35.6247 104.348C35.1393 104.852 34.598 105.3 34.0007 105.692L36.3807 113H30.2207L28.2887 106.896H26.6367L25.3487 113H19.8887ZM30.6967 102.136C30.846 102.136 31.014 102.071 31.2007 101.94C31.3873 101.809 31.5647 101.623 31.7327 101.38C31.9007 101.137 32.0407 100.848 32.1527 100.512C32.2647 100.176 32.3207 99.812 32.3207 99.42C32.3207 99.084 32.274 98.804 32.1807 98.58C32.106 98.356 32.0033 98.188 31.8727 98.076C31.742 97.9453 31.602 97.88 31.4527 97.88H28.5687L27.6727 102.136H30.6967ZM46.5035 113.168C45.2715 113.168 44.1702 112.944 43.1995 112.496C42.2475 112.029 41.4449 111.404 40.7915 110.62C40.1382 109.836 39.6435 108.949 39.3075 107.96C38.9715 106.952 38.8035 105.907 38.8035 104.824C38.8035 103.629 39.0089 102.453 39.4195 101.296C39.8489 100.139 40.4369 99.0653 41.1835 98.076C41.9489 97.068 42.8355 96.1907 43.8435 95.444C44.8702 94.6787 45.9809 94.0813 47.1755 93.652C48.3702 93.2227 49.6115 93.008 50.8995 93.008C52.1315 93.008 53.2235 93.2413 54.1755 93.708C55.1275 94.156 55.9302 94.772 56.5835 95.556C57.2369 96.34 57.7222 97.236 58.0395 98.244C58.3755 99.2333 58.5435 100.269 58.5435 101.352C58.5435 102.547 58.3289 103.723 57.8995 104.88C57.4889 106.019 56.9102 107.092 56.1635 108.1C55.4169 109.089 54.5395 109.967 53.5315 110.732C52.5235 111.497 51.4222 112.095 50.2275 112.524C49.0329 112.953 47.7915 113.168 46.5035 113.168ZM47.5675 108.324C48.4635 108.324 49.2475 108.119 49.9195 107.708C50.5915 107.297 51.1515 106.765 51.5995 106.112C52.0662 105.44 52.4115 104.721 52.6355 103.956C52.8595 103.191 52.9715 102.444 52.9715 101.716C52.9715 101.025 52.8595 100.391 52.6355 99.812C52.4302 99.2147 52.0942 98.7387 51.6275 98.384C51.1609 98.0293 50.5449 97.852 49.7795 97.852C48.9022 97.852 48.1275 98.0573 47.4555 98.468C46.7835 98.86 46.2235 99.3827 45.7755 100.036C45.3275 100.689 44.9822 101.399 44.7395 102.164C44.5155 102.929 44.4035 103.676 44.4035 104.404C44.4035 105.095 44.5062 105.739 44.7115 106.336C44.9355 106.933 45.2809 107.419 45.7475 107.792C46.2142 108.147 46.8209 108.324 47.5675 108.324ZM62.8354 93.12H75.8274L74.8194 97.88H67.2874L66.5874 101.184H72.6914L71.7674 105.608H65.6354L64.0674 113H58.6074L62.8354 93.12ZM81.7881 93.12H86.8001L89.0121 113H83.4681L83.2721 109.108H78.5121L76.6921 113H71.1201L81.7881 93.12ZM83.1881 105.468L82.9641 99.308L80.0801 105.468H83.1881ZM97.3248 113.252C95.9622 113.252 94.5715 113.037 93.1528 112.608C91.7342 112.179 90.5302 111.619 89.5408 110.928L92.9008 106.14C92.8822 106.14 93.0128 106.252 93.2928 106.476C93.5915 106.7 94.0022 106.952 94.5248 107.232C95.0662 107.512 95.6728 107.764 96.3448 107.988C97.0168 108.212 97.7168 108.324 98.4448 108.324C98.8742 108.324 99.1915 108.277 99.3968 108.184C99.6022 108.072 99.7328 107.941 99.7888 107.792C99.8635 107.624 99.9008 107.456 99.9008 107.288C99.9008 106.952 99.7235 106.681 99.3688 106.476C99.0142 106.252 98.5568 106.056 97.9968 105.888C97.4555 105.701 96.8768 105.487 96.2608 105.244C95.4395 104.908 94.7582 104.544 94.2168 104.152C93.6755 103.741 93.2648 103.265 92.9848 102.724C92.7235 102.183 92.5928 101.557 92.5928 100.848C92.5928 99.5973 92.8355 98.4867 93.3208 97.516C93.8248 96.5267 94.4968 95.696 95.3368 95.024C96.1768 94.352 97.1102 93.8387 98.1368 93.484C99.1635 93.1293 100.209 92.952 101.273 92.952C102.206 92.952 103.084 93.0733 103.905 93.316C104.726 93.54 105.482 93.82 106.173 94.156C106.864 94.492 107.461 94.8093 107.965 95.108L104.661 99.616C104.698 99.616 104.586 99.5227 104.325 99.336C104.064 99.1493 103.709 98.944 103.261 98.72C102.813 98.4773 102.309 98.2627 101.749 98.076C101.189 97.8893 100.629 97.796 100.069 97.796C99.8075 97.796 99.5555 97.8427 99.3128 97.936C99.0888 98.0107 98.9115 98.132 98.7808 98.3C98.6502 98.468 98.5848 98.692 98.5848 98.972C98.5848 99.252 98.7062 99.4853 98.9488 99.672C99.2102 99.8587 99.5648 100.036 100.013 100.204C100.461 100.353 100.974 100.54 101.553 100.764C102.449 101.1 103.233 101.473 103.905 101.884C104.596 102.276 105.128 102.771 105.501 103.368C105.874 103.965 106.061 104.731 106.061 105.664C106.061 107.083 105.8 108.277 105.277 109.248C104.754 110.219 104.064 111.003 103.205 111.6C102.346 112.179 101.404 112.599 100.377 112.86C99.3502 113.121 98.3328 113.252 97.3248 113.252ZM114.257 97.88H108.909L109.917 93.12H126.045L125.037 97.88H119.717L116.497 113H111.037L114.257 97.88Z" fill="#194B38"/>
</svg>
