<svg width="24" height="20" viewBox="0 0 24 20" fill="none" xmlns="http://www.w3.org/2000/svg">
<g clip-path="url(#clip0_719_998)">
<path d="M3.53467 3.68816C3.25853 3.68816 2.99418 3.90832 2.94424 4.17991L2.89902 4.42579C2.84908 4.69738 3.03245 4.91754 3.30859 4.91754H14.1836C14.4597 4.91754 14.6431 5.13771 14.5932 5.4093L13.0784 13.6462C13.0285 13.9178 12.7641 14.1379 12.488 14.1379H9.52733C9.29955 14.1379 9.13358 13.9841 9.08111 13.7784C8.85894 12.9075 8.09899 12.2939 7.07712 12.2939C6.02996 12.2939 5.02082 12.9383 4.48767 13.8435C4.38781 14.0131 4.20593 14.1379 4.02035 14.1379C3.79538 14.1379 3.64599 13.9586 3.68668 13.7373L4.08777 11.5562C4.13771 11.2846 3.95434 11.0645 3.6782 11.0645H3.4282C3.15206 11.0645 2.88771 11.2846 2.83777 11.5562L2.22736 14.8756C2.17741 15.1472 2.36078 15.3673 2.63693 15.3673H3.7226C3.95038 15.3673 4.11635 15.5212 4.16882 15.7268C4.39099 16.5977 5.15094 17.2114 6.17281 17.2114C7.19467 17.2114 8.18034 16.5977 8.7228 15.7268C8.85091 15.5212 9.07347 15.3673 9.30125 15.3673H13.7226C13.9504 15.3673 14.1164 15.5212 14.1688 15.7268C14.391 16.5977 15.1509 17.2114 16.1728 17.2114C17.1947 17.2114 18.1803 16.5977 18.7228 15.7268C18.8509 15.5212 19.0735 15.3673 19.3013 15.3673H20.3869C20.6631 15.3673 20.9274 15.1472 20.9774 14.8756L21.7914 10.4489C21.8029 10.3861 21.8022 10.324 21.7891 10.2657L21.7872 10.2574L21.2155 6.56922L21.2047 6.49057C21.1766 6.286 21.0092 6.14693 20.7911 6.14693H16.2075C15.9314 6.14693 15.748 5.92676 15.7979 5.65517L16.0692 4.17991C16.1192 3.90832 15.9358 3.68816 15.6597 3.68816H3.53467ZM3.70751 6.14693C3.43137 6.14693 3.16702 6.36709 3.11708 6.63868L3.07186 6.88456C3.02192 7.15615 3.20529 7.37631 3.48143 7.37631H8.10643C8.38258 7.37631 8.64692 7.15615 8.69686 6.88456L8.74208 6.63868C8.79202 6.36709 8.60865 6.14693 8.33251 6.14693H3.70751ZM15.391 7.86807C15.4409 7.59648 15.7053 7.37631 15.9814 7.37631H19.6724C19.8873 7.37631 20.0533 7.51133 20.0848 7.71169L20.5151 10.4505C20.5231 10.5009 20.5221 10.5537 20.5123 10.6069L19.9367 13.7373C19.896 13.9586 19.6806 14.1379 19.4557 14.1379C19.2701 14.1379 19.1341 14.0131 19.0966 13.8435C18.8964 12.9383 18.1243 12.2939 17.0771 12.2939C15.9344 12.2939 14.837 13.0612 14.354 14.0975C14.3429 14.1212 14.318 14.1379 14.293 14.1379C14.2626 14.1379 14.2425 14.1137 14.2479 14.0839L15.391 7.86807ZM3.88036 8.6057C3.60421 8.6057 3.33987 8.82586 3.28992 9.09745L3.24471 9.34333C3.19477 9.61492 3.37814 9.83508 3.65428 9.83508H6.40428C6.68042 9.83508 6.94477 9.61492 6.99471 9.34333L7.03992 9.09745C7.08987 8.82586 6.9065 8.6057 6.63036 8.6057H3.88036ZM6.85104 13.5232C7.54917 13.5232 8.00123 14.066 7.87497 14.7526C7.7487 15.4392 7.09701 15.982 6.39889 15.982C5.70076 15.982 5.2487 15.4392 5.37497 14.7526C5.50123 14.066 6.15292 13.5232 6.85104 13.5232ZM16.851 13.5232C17.5492 13.5232 18.0012 14.066 17.875 14.7526C17.7487 15.4392 17.097 15.982 16.3989 15.982C15.7008 15.982 15.2487 15.4392 15.375 14.7526C15.5012 14.066 16.1529 13.5232 16.851 13.5232Z" fill="#4CBB5E" stroke="white" stroke-width="0.2"/>
</g>
<defs>
<clipPath id="clip0_719_998">
<rect width="20" height="20" fill="white" transform="matrix(1 0 -0.180862 0.983508 3.71289 0)"/>
</clipPath>
</defs>
</svg>
