<svg width="25" height="25" viewBox="0 0 25 25" fill="none" xmlns="http://www.w3.org/2000/svg">
<path d="M12.5001 21.8743C12.363 21.8751 12.2271 21.8489 12.1002 21.797C11.9733 21.7452 11.8578 21.6688 11.7605 21.5723L3.66676 13.4681C2.65151 12.4422 2.08203 11.0572 2.08203 9.61393C2.08203 8.17063 2.65151 6.78562 3.66676 5.75976C4.68995 4.73946 6.07596 4.1665 7.52092 4.1665C8.96589 4.1665 10.3519 4.73946 11.3751 5.75976L12.5001 6.88476L13.6251 5.75976C14.6483 4.73946 16.0343 4.1665 17.4793 4.1665C18.9242 4.1665 20.3102 4.73946 21.3334 5.75976C22.3487 6.78562 22.9181 8.17063 22.9181 9.61393C22.9181 11.0572 22.3487 12.4422 21.3334 13.4681L13.2397 21.5723C13.1423 21.6688 13.0269 21.7452 12.9 21.797C12.7731 21.8489 12.6372 21.8751 12.5001 21.8743Z" fill="url(#paint0_radial_758_80)"/>
<defs>
<radialGradient id="paint0_radial_758_80" cx="0" cy="0" r="1" gradientUnits="userSpaceOnUse" gradientTransform="translate(6.66598 20.6348) rotate(-46.2876) scale(19.5987 20.0025)">
<stop stop-color="#EC534A"/>
<stop offset="1" stop-color="#EC6E47"/>
</radialGradient>
</defs>
</svg>
