<svg width="50" height="50" viewBox="0 0 50 50" fill="none" xmlns="http://www.w3.org/2000/svg">
<rect width="50" height="50" rx="18" fill="url(#paint0_linear_607_118)"/>
<path d="M16.75 17.625C16.75 17.1277 16.9475 16.6508 17.2992 16.2992C17.6508 15.9475 18.1277 15.75 18.625 15.75H21.125C21.2908 15.75 21.4497 15.6842 21.5669 15.5669C21.6842 15.4497 21.75 15.2908 21.75 15.125C21.75 14.9592 21.6842 14.8003 21.5669 14.6831C21.4497 14.5658 21.2908 14.5 21.125 14.5H18.625C17.7962 14.5 17.0013 14.8292 16.4153 15.4153C15.8292 16.0013 15.5 16.7962 15.5 17.625V20.125C15.5 20.2908 15.5658 20.4497 15.6831 20.5669C15.8003 20.6842 15.9592 20.75 16.125 20.75C16.2908 20.75 16.4497 20.6842 16.5669 20.5669C16.6842 20.4497 16.75 20.2908 16.75 20.125V17.625ZM34.25 31.375C34.25 31.8723 34.0525 32.3492 33.7008 32.7008C33.3492 33.0525 32.8723 33.25 32.375 33.25H29.875C29.7092 33.25 29.5503 33.3158 29.4331 33.4331C29.3158 33.5503 29.25 33.7092 29.25 33.875C29.25 34.0408 29.3158 34.1997 29.4331 34.3169C29.5503 34.4342 29.7092 34.5 29.875 34.5H32.375C33.2038 34.5 33.9987 34.1708 34.5847 33.5847C35.1708 32.9987 35.5 32.2038 35.5 31.375V28.875C35.5 28.7092 35.4342 28.5503 35.3169 28.4331C35.1997 28.3158 35.0408 28.25 34.875 28.25C34.7092 28.25 34.5503 28.3158 34.4331 28.4331C34.3158 28.5503 34.25 28.7092 34.25 28.875V31.375ZM32.375 15.75C32.8723 15.75 33.3492 15.9475 33.7008 16.2992C34.0525 16.6508 34.25 17.1277 34.25 17.625V20.125C34.25 20.2908 34.3158 20.4497 34.4331 20.5669C34.5503 20.6842 34.7092 20.75 34.875 20.75C35.0408 20.75 35.1997 20.6842 35.3169 20.5669C35.4342 20.4497 35.5 20.2908 35.5 20.125V17.625C35.5 16.7962 35.1708 16.0013 34.5847 15.4153C33.9987 14.8292 33.2038 14.5 32.375 14.5H29.875C29.7092 14.5 29.5503 14.5658 29.4331 14.6831C29.3158 14.8003 29.25 14.9592 29.25 15.125C29.25 15.2908 29.3158 15.4497 29.4331 15.5669C29.5503 15.6842 29.7092 15.75 29.875 15.75H32.375ZM16.75 31.375C16.75 31.8723 16.9475 32.3492 17.2992 32.7008C17.6508 33.0525 18.1277 33.25 18.625 33.25H21.125C21.2908 33.25 21.4497 33.3158 21.5669 33.4331C21.6842 33.5503 21.75 33.7092 21.75 33.875C21.75 34.0408 21.6842 34.1997 21.5669 34.3169C21.4497 34.4342 21.2908 34.5 21.125 34.5H18.625C17.7962 34.5 17.0013 34.1708 16.4153 33.5847C15.8292 32.9987 15.5 32.2038 15.5 31.375V28.875C15.5 28.7092 15.5658 28.5503 15.6831 28.4331C15.8003 28.3158 15.9592 28.25 16.125 28.25C16.2908 28.25 16.4497 28.3158 16.5669 28.4331C16.6842 28.5503 16.75 28.7092 16.75 28.875V31.375ZM27.0412 20.6287C26.8687 20.3797 26.6383 20.1761 26.3699 20.0356C26.1015 19.895 25.803 19.8215 25.5 19.8215C25.197 19.8215 24.8985 19.895 24.6301 20.0356C24.3617 20.1761 24.1313 20.3797 23.9588 20.6287L20.7188 25.3075C19.8588 26.5512 20.75 28.25 22.2625 28.25H28.7413C30.2538 28.25 31.1425 26.5512 30.2825 25.3075L27.0425 20.6287H27.0412Z" fill="white" stroke="white"/>
<defs>
<linearGradient id="paint0_linear_607_118" x1="3.75" y1="47.5" x2="51.5625" y2="5.3125" gradientUnits="userSpaceOnUse">
<stop stop-color="#26AD71"/>
<stop offset="1" stop-color="#32CB4B"/>
</linearGradient>
</defs>
</svg>
