<svg width="10" height="10" viewBox="0 0 10 10" fill="none" xmlns="http://www.w3.org/2000/svg">
<path d="M4.28301 0.545996C4.34905 0.412076 4.45126 0.299313 4.57806 0.220462C4.70486 0.141612 4.8512 0.099823 5.00051 0.099823C5.14983 0.099823 5.29617 0.141612 5.42297 0.220462C5.54977 0.299313 5.65197 0.412076 5.71801 0.545996L6.83001 2.8L9.31601 3.16C9.4638 3.18146 9.60262 3.24385 9.71679 3.34012C9.83095 3.43639 9.91588 3.5627 9.96198 3.70474C10.0081 3.84678 10.0135 3.99889 9.97763 4.14385C9.94176 4.28881 9.86603 4.42084 9.75901 4.525L7.96001 6.278L8.38501 8.754C8.41007 8.901 8.39354 9.05207 8.3373 9.19018C8.28105 9.32828 8.18732 9.44791 8.06669 9.53558C7.94606 9.62324 7.80333 9.67544 7.65461 9.6863C7.50589 9.69715 7.35709 9.66622 7.22501 9.597L5.00001 8.428L2.77601 9.597C2.64394 9.66622 2.49514 9.69715 2.34642 9.6863C2.19769 9.67544 2.05496 9.62324 1.93433 9.53558C1.81371 9.44791 1.71998 9.32828 1.66373 9.19018C1.60749 9.05207 1.59096 8.901 1.61601 8.754L2.04001 6.278L0.241014 4.524C0.134271 4.41974 0.0588131 4.2877 0.0231658 4.14281C-0.0124816 3.99792 -0.00689731 3.84595 0.0392876 3.70407C0.0854725 3.56218 0.170417 3.43604 0.284524 3.3399C0.398631 3.24376 0.537352 3.18144 0.685014 3.16L3.17101 2.799L4.28201 0.545996H4.28301Z" fill="#F0C334"/>
</svg>
