<svg width="60" height="60" viewBox="0 0 60 60" fill="none" xmlns="http://www.w3.org/2000/svg">
<rect width="60" height="60" rx="20" fill="#F1F4F3"/>
<g clip-path="url(#clip0_194_3506)">
<path fill-rule="evenodd" clip-rule="evenodd" d="M41 22.9499C40.1763 23.315 39.3024 23.5545 38.4077 23.6604C39.3501 23.0963 40.0555 22.2088 40.3923 21.1634C39.5062 21.6894 38.5368 22.0602 37.5258 22.2597C36.8462 21.5339 35.946 21.0528 34.965 20.8911C33.984 20.7293 32.977 20.8959 32.1003 21.3651C31.2237 21.8342 30.5265 22.5796 30.1168 23.4856C29.7072 24.3916 29.6082 25.4075 29.835 26.3755C28.0402 26.2858 26.2843 25.8195 24.6815 25.0068C23.0787 24.1941 21.6648 23.0532 20.5318 21.6584C20.1302 22.3473 19.9191 23.1306 19.9203 23.928C19.9203 25.4937 20.7169 26.876 21.9288 27.6854C21.212 27.6622 20.5111 27.469 19.8837 27.1217V27.1767C19.8835 28.2191 20.244 29.2294 20.904 30.0362C21.564 30.8431 22.4828 31.3967 23.5045 31.6033C22.8396 31.7832 22.1425 31.8099 21.4658 31.6812C21.7542 32.5781 22.3157 33.3624 23.0717 33.9245C23.8278 34.4866 24.7406 34.7984 25.6825 34.8162C24.0834 36.0703 22.1093 36.7505 20.0771 36.7476C19.7122 36.7476 19.3529 36.7265 19 36.6853C21.064 38.0111 23.4659 38.715 25.919 38.7129C34.2213 38.7129 38.7606 31.8352 38.7606 25.8704C38.7606 25.6752 38.756 25.4809 38.7477 25.2874C39.6314 24.6483 40.3941 23.8567 41 22.9499Z" fill="#55ACEE"/>
</g>
<defs>
<clipPath id="clip0_194_3506">
<rect width="22" height="22" fill="white" transform="translate(19 19)"/>
</clipPath>
</defs>
</svg>
